<?xml version="1.0" standalone="no"?>
<!DOCTYPE svg PUBLIC "-//W3C//DTD SVG 20010904//EN"
 "http://www.w3.org/TR/2001/REC-SVG-20010904/DTD/svg10.dtd">
<svg version="1.0" xmlns="http://www.w3.org/2000/svg"
 width="3368.000000pt" height="2380.000000pt" viewBox="0 0 3368.000000 2380.000000"
 preserveAspectRatio="xMidYMid meet">

<g transform="translate(0.000000,2380.000000) scale(0.100000,-0.100000)"
fill="#000000" stroke="none">
<path d="M6862 13233 l3 -3628 890 -1 c490 0 902 1 918 3 l27 5 0 899 0 899
890 0 c490 0 893 0 898 0 4 0 9 -406 12 -902 l5 -903 895 -3 c492 -1 902 0
910 3 9 4 -282 302 -888 908 l-902 902 884 885 c487 486 892 898 901 914 14
28 16 200 13 1836 l-3 1805 -2728 3 -2727 2 2 -3627z m3638 915 c0 -491 -4
-898 -8 -904 -8 -12 -757 -21 -1419 -16 l-373 2 0 905 0 905 900 0 900 0 0
-892z"/>
<path d="M14132 13233 l3 -3628 875 -2 c481 -1 890 0 908 3 l32 5 0 1802 0
1802 894 -894 c530 -530 898 -891 905 -887 8 5 11 492 11 1807 l0 1799 848 1
c466 0 867 0 892 0 25 -1 51 2 58 7 10 7 12 195 10 908 l-3 899 -905 3 -905 2
-895 -895 c-492 -492 -898 -895 -902 -895 -5 0 -9 402 -10 893 l-3 892 -908 3
-907 2 2 -3627z"/>
<path d="M21382 13233 l3 -3628 886 -2 c487 -1 895 0 907 4 l22 5 0 899 0 899
900 0 900 0 2 -902 3 -903 875 -2 c481 0 890 1 908 3 l32 5 0 3618 c0 3291 -1
3619 -16 3625 -9 3 -418 6 -910 6 l-894 0 0 -905 0 -905 -900 0 -900 0 -2 903
-3 902 -908 3 -907 2 2 -3627z m4753 2712 l0 -200 -200 0 -200 0 -3 203 -2
202 202 -2 203 -3 0 -200z m-3687 -4 c2 -149 -1 -196 -10 -203 -7 -4 -102 -8
-210 -8 l-198 0 0 205 0 205 208 -2 207 -3 3 -194z m3690 -898 l2 -203 -22 -5
c-13 -3 -104 -4 -203 -3 l-180 3 -3 208 -2 207 202 -2 203 -3 3 -202z m-3693
-13 l0 -205 -207 -3 -208 -2 0 210 0 210 208 -2 207 -3 0 -205z m3693 -892 l2
-198 -22 -5 c-13 -3 -104 -4 -203 -3 l-180 3 -3 203 -2 202 202 -2 203 -3 3
-197z m-3690 -9 c2 -184 1 -197 -16 -201 -10 -3 -104 -5 -208 -4 l-189 1 -3
203 -2 202 207 -2 208 -3 3 -196z m3687 -899 l0 -205 -200 0 -200 0 -3 208 -2
207 202 -2 203 -3 0 -205z m-3687 -9 c2 -149 -1 -196 -10 -203 -7 -4 -102 -8
-210 -8 l-198 0 0 205 0 205 208 -2 207 -3 3 -194z m3690 -898 l2 -203 -22 -5
c-13 -3 -104 -4 -203 -3 l-180 3 -3 208 -2 207 202 -2 203 -3 3 -202z m-3693
-13 l0 -205 -207 -3 -208 -2 0 210 0 210 208 -2 207 -3 0 -205z m3693 -892 l2
-198 -22 -5 c-13 -3 -104 -4 -203 -3 l-180 3 -3 203 -2 202 202 -2 203 -3 3
-197z m-3690 -9 c2 -184 1 -197 -16 -201 -10 -3 -104 -5 -208 -4 l-189 1 -3
203 -2 202 207 -2 208 -3 3 -196z m3690 -896 l2 -203 -22 -5 c-13 -3 -104 -4
-203 -3 l-180 3 -3 208 -2 207 202 -2 203 -3 3 -202z m-3690 -10 l2 -203 -22
-5 c-13 -3 -106 -4 -208 -3 l-185 3 -3 208 -2 207 207 -2 208 -3 3 -202z"/>
<path d="M17797 11413 l-47 -4 0 -905 0 -906 901 4 c496 1 906 6 912 10 7 4
-24 9 -68 10 l-80 2 73 3 72 4 0 888 0 888 -82 6 c-85 7 -1596 6 -1681 0z
m933 -890 c4 -596 3 -724 -8 -728 -8 -3 -49 -5 -91 -5 l-78 0 -6 168 c-4 134
-3 1279 2 1290 0 1 40 1 89 0 l87 -3 5 -722z m353 498 c4 -4 6 -236 5 -517
l-3 -509 -79 -3 c-57 -2 -82 1 -87 10 -11 16 -12 1022 -1 1032 8 10 154 -2
165 -13z m-718 -511 l0 -345 -85 0 -85 0 0 335 c0 184 2 341 4 348 2 9 25 12
85 10 l81 -3 0 -345z"/>
<path d="M11650 6471 c-40 -21 -80 -74 -80 -105 1 -20 31 -88 60 -134 14 -22
13 -25 -32 -65 -56 -51 -68 -73 -68 -129 0 -57 28 -108 76 -136 54 -32 154
-24 232 18 l54 29 51 -34 c52 -35 97 -46 97 -22 0 20 -12 31 -62 60 -27 15
-48 34 -48 41 0 8 12 37 26 65 33 63 44 145 20 154 -19 8 -36 -20 -36 -60 0
-31 -32 -107 -49 -118 -13 -7 -171 141 -171 161 0 6 14 17 31 24 17 7 53 35
80 61 41 40 49 54 49 84 0 48 -24 91 -60 110 -40 21 -127 19 -170 -4z m119
-32 c31 -11 61 -52 61 -83 0 -40 -108 -124 -143 -111 -22 9 -57 80 -57 117 0
37 18 60 60 77 33 13 41 13 79 0z m-6 -365 c86 -90 89 -103 26 -128 -75 -30
-158 -15 -193 36 -35 49 -10 144 46 174 28 15 26 17 121 -82z"/>
<path d="M8728 6474 c-2 -1 -2 -133 0 -293 l3 -292 142 3 c139 3 142 4 145 26
3 22 2 22 -117 22 l-121 0 0 264 0 264 -25 4 c-13 3 -26 4 -27 2z"/>
<path d="M9953 6458 c-19 -22 -51 -87 -166 -343 -30 -66 -58 -120 -62 -120 -4
0 -26 43 -48 95 -22 52 -67 158 -101 235 l-61 140 -40 0 -40 0 -5 -125 c-3
-69 -3 -198 -1 -287 3 -147 6 -163 21 -163 26 0 30 37 30 288 0 134 4 222 9
217 5 -6 49 -109 99 -230 113 -276 113 -275 128 -275 18 0 39 40 149 280 53
118 102 219 106 225 5 5 9 -102 9 -248 l0 -257 25 0 25 0 0 285 c0 271 -1 285
-19 295 -28 14 -35 13 -58 -12z"/>
<path d="M13559 6473 c-14 -3 -17 -35 -22 -228 -4 -123 -4 -253 0 -290 5 -60
8 -66 27 -63 21 3 21 8 26 258 l5 255 38 -90 c49 -113 162 -384 170 -407 9
-26 32 -22 52 8 9 14 61 123 114 242 54 120 102 217 107 217 5 0 10 -106 12
-242 l2 -243 26 0 25 0 -2 280 c-1 312 -4 328 -56 300 -31 -17 -39 -32 -157
-294 -45 -98 -86 -179 -91 -179 -13 -1 -21 16 -96 203 -71 177 -115 270 -128
270 -5 0 -15 2 -23 4 -7 2 -20 2 -29 -1z"/>
<path d="M15534 6461 c-51 -31 -74 -68 -74 -120 0 -76 50 -136 150 -179 100
-43 139 -106 106 -171 -24 -45 -68 -65 -133 -58 -30 3 -70 15 -89 26 -46 28
-56 26 -52 -6 4 -40 63 -67 148 -67 111 -1 188 62 192 156 2 67 -41 119 -142
169 -97 47 -118 65 -126 104 -9 50 2 83 36 100 40 21 96 19 149 -6 49 -22 70
-14 52 19 -26 48 -159 68 -217 33z"/>
<path d="M16211 6471 c-8 -5 -11 -82 -9 -292 3 -276 4 -284 23 -284 19 0 20 8
23 286 2 234 0 288 -11 292 -8 3 -19 2 -26 -2z"/>
<path d="M16862 6469 c-50 -15 -116 -87 -143 -155 -17 -45 -23 -79 -23 -144 0
-75 4 -93 31 -151 35 -75 75 -111 143 -129 84 -22 219 15 242 66 18 38 2 40
-63 6 -128 -66 -235 -28 -284 102 -13 35 -16 66 -13 135 4 77 8 96 34 137 62
101 148 121 263 62 33 -17 64 -29 67 -25 13 13 -23 62 -61 81 -45 23 -142 31
-193 15z"/>
<path d="M20283 6474 c-13 -3 -23 -10 -23 -15 0 -5 -8 -9 -18 -9 -22 0 -64
-29 -58 -39 3 -4 -6 -14 -20 -21 -17 -10 -21 -16 -12 -21 10 -7 10 -11 0 -21
-14 -14 -16 -38 -2 -38 6 0 10 5 10 11 0 22 43 70 80 89 55 28 153 27 200 -1
42 -26 55 -42 81 -97 22 -47 30 -161 16 -216 l-8 -29 30 29 c28 26 31 35 31
89 0 83 -15 128 -55 170 -19 19 -35 40 -35 45 0 6 -5 10 -11 10 -19 0 -79 32
-79 42 0 6 12 8 28 4 23 -5 24 -5 8 5 -20 12 -127 21 -163 13z"/>
<path d="M22935 6473 c-11 -3 -24 -11 -28 -19 -4 -8 -15 -14 -22 -14 -8 0 -15
-5 -15 -12 0 -6 -3 -9 -6 -5 -4 3 -13 0 -21 -8 -19 -20 -66 -125 -59 -132 3
-4 7 -4 9 -2 1 2 13 26 27 53 51 102 149 127 274 68 36 -17 66 -27 66 -23 0
16 -42 62 -70 76 -31 16 -123 27 -155 18z"/>
<path d="M25043 6473 c-13 -2 -23 -8 -23 -13 0 -5 -14 -11 -31 -15 -17 -4 -33
-14 -36 -23 -4 -10 -12 -21 -20 -25 -7 -4 -13 -16 -13 -25 0 -10 -5 -23 -11
-29 -6 -6 -9 -17 -7 -23 2 -7 16 6 31 29 37 56 90 81 169 81 132 0 201 -86
199 -246 0 -75 2 -84 18 -84 24 0 31 19 31 88 0 80 -16 127 -56 168 -19 20
-34 42 -34 50 0 9 -11 14 -28 14 -16 0 -35 9 -46 21 -18 22 -18 22 10 15 22
-5 25 -4 14 4 -8 6 -33 8 -55 5 -29 -4 -35 -2 -20 4 16 8 10 9 -25 9 -25 0
-55 -3 -67 -5z"/>
<path d="M7489 6463 c0 -12 -1 -262 0 -425 l1 -148 25 0 25 0 0 141 0 142 105
-5 c109 -5 132 0 122 26 -5 12 -27 16 -114 18 l-108 3 -3 103 -3 102 121 0
120 0 0 25 0 25 -145 0 c-80 0 -145 -3 -146 -7z"/>
<path d="M8206 6418 c2 -29 3 -160 3 -290 l1 -238 25 0 25 0 0 290 0 290 -28
0 c-27 0 -28 -1 -26 -52z"/>
<path d="M14609 6348 c-3 -305 2 -350 50 -401 41 -45 73 -57 150 -57 85 0 109
8 154 55 49 51 57 94 57 324 l0 201 -24 0 -24 0 -4 -217 c-3 -245 -9 -267 -78
-305 -45 -25 -129 -20 -168 9 -56 41 -62 68 -62 301 l0 212 -25 0 -25 0 -1
-122z"/>
<path d="M18613 6463 c28 -4 28 -5 11 -24 -13 -14 -20 -16 -31 -8 -11 9 -13
-1 -11 -57 1 -62 2 -64 6 -19 3 37 6 45 12 30 7 -18 8 -18 15 8 9 34 37 42
113 33 69 -8 100 -29 127 -83 11 -23 24 -41 30 -41 5 0 12 -9 16 -19 5 -12 8
-2 8 27 1 46 -31 116 -48 106 -4 -3 -18 4 -30 15 -31 30 -75 39 -166 38 -44
-1 -67 -4 -52 -6z m276 -102 c-1 -13 -2 -12 -6 2 -2 9 -9 17 -14 17 -5 0 -9 8
-9 18 1 15 2 15 15 -2 8 -11 14 -27 14 -35z"/>
<path d="M19368 6460 c12 -5 22 -11 22 -13 0 -2 -10 -3 -22 -3 l-23 1 -3 -265
c-1 -146 0 -270 2 -277 3 -6 13 -9 23 -7 16 5 18 17 15 139 l-3 135 43 0 c88
0 114 -15 151 -83 19 -34 45 -88 58 -120 22 -55 51 -87 63 -69 7 11 -82 212
-112 251 -20 27 -23 36 -11 39 20 7 79 74 73 83 -3 5 0 17 6 28 8 16 6 28 -10
56 -11 20 -19 44 -18 52 2 9 -5 17 -15 19 -10 1 -25 11 -32 20 -11 15 -31 19
-121 21 -77 2 -102 0 -86 -7z m198 -55 c36 -23 55 -76 43 -119 -15 -55 -56
-78 -140 -79 -60 -1 -72 2 -92 22 -12 13 -17 25 -11 27 12 5 6 64 -6 64 -5 0
-8 14 -8 30 1 19 6 30 15 30 9 0 12 -7 9 -17 -3 -10 -1 -25 4 -33 7 -11 10 0
10 36 0 28 3 54 8 58 12 13 142 -2 168 -19z"/>
<path d="M21042 6458 c-9 -9 -12 -85 -12 -280 0 -264 0 -267 22 -279 23 -12
134 -6 222 13 127 27 205 207 160 368 -14 50 -28 75 -65 113 -26 27 -52 46
-58 42 -6 -3 -11 -2 -11 3 0 28 -233 45 -258 20z m247 -61 c25 -13 57 -40 75
-65 27 -38 30 -52 34 -130 3 -63 0 -99 -12 -132 -9 -25 -18 -49 -19 -55 -1 -5
-18 -22 -38 -37 -40 -31 -157 -54 -215 -43 l-34 6 0 238 c0 131 3 241 8 245
14 15 156 -4 201 -27z m-229 -67 c0 -5 -2 -10 -4 -10 -3 0 -8 5 -11 10 -3 6
-1 10 4 10 6 0 11 -4 11 -10z m-1 -162 c1 -78 -2 -138 -6 -135 -10 10 -13 277
-3 277 4 0 8 -64 9 -142z"/>
<path d="M21887 6463 c-4 -3 -7 -99 -6 -212 0 -235 9 -274 73 -325 29 -24 49
-31 96 -34 82 -6 125 4 165 39 57 50 64 87 67 327 3 208 3 213 -17 210 -19 -3
-20 -13 -25 -225 -5 -204 -7 -224 -26 -249 -47 -64 -104 -82 -181 -59 -24 7
-43 11 -43 8 0 -3 -10 6 -21 21 -40 51 -49 107 -49 313 0 154 -3 193 -13 193
-8 0 -17 -3 -20 -7z"/>
<path d="M23523 6454 c-9 -24 14 -33 92 -33 38 0 76 0 82 0 10 -1 13 -63 15
-258 2 -200 6 -257 16 -255 6 1 12 -3 12 -9 0 -5 4 -8 8 -5 4 2 7 122 7 266 0
297 -8 274 90 266 72 -5 105 3 105 25 0 18 -11 19 -210 19 -184 0 -211 -2
-217 -16z m214 -221 c-3 -10 -5 -4 -5 12 0 17 2 24 5 18 2 -7 2 -21 0 -30z"/>
<path d="M24357 6463 c-4 -3 -7 -129 -7 -279 0 -257 1 -274 19 -283 10 -6 21
-8 24 -5 3 3 6 134 7 290 1 271 0 284 -18 284 -10 0 -22 -3 -25 -7z"/>
<path d="M25796 6454 c-8 -22 -8 -265 1 -305 l8 -34 6 40 c4 29 7 15 8 -49 1
-82 0 -88 -14 -70 -14 17 -15 12 -12 -56 1 -54 6 -74 15 -72 6 1 13 -4 14 -10
4 -31 14 164 16 338 2 106 5 201 7 213 3 17 -1 21 -20 21 -12 0 -26 -7 -29
-16z"/>
<path d="M26157 6464 c-11 -11 -9 -444 2 -444 5 0 12 6 14 13 3 6 6 -23 6 -66
1 -47 5 -76 11 -72 5 3 8 116 7 288 -2 245 -4 282 -17 285 -9 1 -19 0 -23 -4z"/>
<path d="M25864 6419 c-4 -7 -3 -9 4 -5 5 3 13 0 15 -6 4 -9 6 -10 6 -1 1 17
-16 25 -25 12z"/>
<path d="M18586 6255 c-4 -14 -6 -100 -5 -190 l1 -165 23 2 c18 2 22 6 16 23
-11 35 2 200 17 201 6 1 40 2 75 3 47 2 56 5 37 11 -25 8 -24 8 5 9 23 1 27 3
15 11 -8 5 -29 7 -46 4 -45 -8 -115 13 -113 34 6 69 -12 110 -25 57z"/>
<path d="M22783 6215 c0 -22 2 -30 4 -17 2 12 2 30 0 40 -3 9 -5 -1 -4 -23z"/>
<path d="M18861 6216 c-6 -8 -24 -19 -39 -25 -17 -7 -28 -19 -28 -31 0 -11 3
-20 7 -20 12 0 69 51 80 71 11 22 -3 26 -20 5z"/>
<path d="M25971 6182 c12 -19 39 -26 39 -10 0 4 -7 8 -15 8 -8 0 -15 5 -15 10
0 6 -5 10 -10 10 -6 0 -6 -7 1 -18z"/>
<path d="M24857 6172 c7 -4 12 -16 12 -27 1 -11 1 -44 1 -72 1 -44 7 -60 33
-95 57 -74 87 -88 186 -87 47 1 78 3 69 6 -10 2 -18 9 -18 14 0 5 -12 9 -27 9
-16 0 -51 6 -80 14 -28 8 -55 11 -58 7 -4 -3 -5 1 -3 9 2 8 -3 14 -10 12 -8
-1 -20 15 -29 37 -9 22 -20 38 -25 35 -5 -3 -4 -12 3 -20 7 -8 7 -14 1 -14
-14 0 -19 19 -16 63 1 20 -2 40 -7 43 -5 3 -9 21 -9 40 0 26 -4 34 -17 34 -12
0 -14 -3 -6 -8z"/>
<path d="M20112 6133 c-2 -41 10 -64 23 -43 3 5 2 10 -4 10 -5 0 -12 17 -14
38 l-4 37 -1 -42z"/>
<path d="M22755 6100 c-2 -3 0 -11 4 -18 5 -8 10 -6 18 7 9 14 8 18 -3 18 -8
0 -17 -3 -19 -7z"/>
<path d="M26037 6080 c3 -11 7 -20 9 -20 2 0 4 9 4 20 0 11 -4 20 -9 20 -5 0
-7 -9 -4 -20z"/>
<path d="M25290 6079 c0 -5 5 -7 10 -4 6 3 10 8 10 11 0 2 -4 4 -10 4 -5 0
-10 -5 -10 -11z"/>
<path d="M26080 6071 c5 -11 15 -23 21 -27 6 -3 3 5 -6 20 -20 30 -30 35 -15
7z"/>
<path d="M20110 6049 c0 -46 68 -128 123 -148 16 -6 63 -10 105 -10 42 1 69 3
60 6 -10 2 -18 9 -18 14 0 5 -13 9 -28 9 -16 0 -51 7 -77 15 -27 8 -53 11 -58
8 -6 -4 -7 -1 -3 6 5 8 1 14 -12 18 -11 2 -27 21 -36 41 -9 21 -14 27 -12 15
2 -13 1 -23 -4 -23 -13 0 -21 33 -10 44 15 15 12 22 -10 23 -14 1 -20 -4 -20
-18z"/>
<path d="M22762 6046 c7 -8 15 -12 17 -11 5 6 -10 25 -20 25 -5 0 -4 -6 3 -14z"/>
<path d="M26072 6013 c22 -37 43 -57 63 -58 5 0 12 -11 16 -25 6 -21 7 -22 9
-5 4 33 0 45 -21 66 -10 10 -19 25 -20 32 -1 6 -5 1 -9 -13 -5 -14 -8 -18 -9
-9 -1 9 -12 24 -26 33 l-24 16 21 -37z"/>
<path d="M22788 6025 c-13 -14 8 -58 43 -89 44 -40 83 -50 174 -44 52 3 73 10
107 34 24 16 44 39 46 49 3 18 2 18 -13 -3 -9 -12 -20 -20 -25 -17 -5 3 -11 1
-14 -4 -3 -5 -25 -12 -48 -15 -24 -4 -50 -11 -58 -17 -11 -7 -7 -9 18 -5 18 2
30 0 26 -5 -3 -5 -24 -9 -47 -9 -31 0 -38 3 -27 10 11 7 5 10 -23 10 -23 0
-36 -4 -32 -10 8 -13 -1 -13 -28 3 -28 15 -38 29 -32 44 2 7 -6 19 -18 28 -12
8 -21 18 -19 20 9 19 -14 35 -30 20z"/>
<path d="M25275 5986 c-51 -52 -69 -76 -60 -76 10 0 105 98 105 110 0 13 1 14
-45 -34z"/>
<path d="M20509 5978 c-37 -36 -64 -68 -57 -68 7 0 59 49 82 78 27 32 15 27
-25 -10z"/>
<path d="M22887 5939 c7 -7 15 -10 18 -7 3 3 -2 9 -12 12 -14 6 -15 5 -6 -5z"/>
<path d="M25178 5933 c7 -3 16 -2 19 1 4 3 -2 6 -13 5 -11 0 -14 -3 -6 -6z"/>
</g>
</svg>
